<?xml version="1.0" encoding="utf-8"?>
<!DOCTYPE svg PUBLIC "-//W3C//DTD SVG 1.1//EN" "http://www.w3.org/Graphics/SVG/1.1/DTD/svg11.dtd">
<svg version="1.1" xmlns="http://www.w3.org/2000/svg" xmlns:xlink="http://www.w3.org/1999/xlink" x="0px"
	 y="0px" width="360px" height="124px" viewBox="0 0 360 124" enable-background="new 0 0 360 124" xml:space="preserve">
<g id="itclogo">
	<g>
		<path opacity="0.25" fill-rule="evenodd" clip-rule="evenodd" fill="#FFFFFF" d="M103.87,70.548
			c-2.228,4.203-4.607,7.479-7.148,9.767c-2.558,2.291-5.431,3.439-8.631,3.439c-2.244,0-3.829-1.09-4.786-3.334
			c-0.988-2.228-1.45-5.398-1.45-9.571c0-3.621,0.492-7.567,1.523-11.846c1.018-4.277,2.454-8.227,4.293-11.845
			c1.75-3.457,3.904-6.447,6.446-8.974c2.528-2.529,5.311-3.784,8.346-3.784c2.856,0,4.996,0.912,6.477,2.705
			c1.45,1.826,2.513,4.697,3.2,8.646L103.87,70.548z M136.37,104.694c-4.951,3.876-10.514,6.851-16.691,8.898
			c-6.192,2.035-13.236,3.067-21.133,3.067c-7.059,0-15.077-1.092-21.104-3.275c-6.028-2.197-11.262-5.445-15.704-9.782
			c-4.533-4.487-8.062-10.081-10.544-16.737c-2.499-6.669-3.725-14.373-3.725-23.136c0-9.109,1.585-17.274,4.787-24.499
			c3.17-7.194,7.359-13.222,12.504-18.084c5.279-4.979,11.112-8.733,17.558-11.307c6.431-2.571,14.538-3.858,21.343-3.858
			c7.119,0,13.46,1.077,18.995,3.2c5.534,2.155,10.139,5.057,13.79,8.735c3.784,3.739,6.581,8.077,8.434,12.922
			c1.84,4.891,2.768,10.202,2.768,15.899c0,11.562-2.617,20.865-7.852,27.923c-5.22,7.061-11.726,10.59-19.534,10.59
			c-2.049,0-3.723-0.552-5.041-1.69c-1.301-1.122-1.958-2.916-1.958-5.384c0-0.912,0.12-2.153,0.389-3.725
			c0.269-1.568,0.613-2.946,1.032-4.157l13.536-38.887h-11.083l-2.917,7.554h-0.448c-0.493-2.948-1.795-5.192-3.918-6.732
			c-2.124-1.54-4.562-2.318-7.269-2.318c-5.145,0-9.917,1.497-14.329,4.489c-4.412,2.99-8.017,6.491-10.798,10.543
			c-2.768,4.01-4.966,8.227-6.611,12.639c-1.629,4.442-2.452,8.435-2.452,11.994c0,3.83,0.479,7.029,1.436,9.618
			c0.957,2.603,2.244,4.696,3.874,6.296c1.615,1.51,3.455,2.617,5.563,3.261c2.079,0.659,4.127,0.986,6.146,0.986
			c3.082,0,6.117-1.076,9.154-3.245c3.021-2.153,5.698-5.069,8.062-8.72l0.509,0.136c0.328,3.77,1.974,6.686,4.86,8.749
			c2.901,2.05,6.445,3.08,10.664,3.08c10.095,0,18.456-4.067,25.066-12.248c6.596-8.181,9.902-18.172,9.902-30.002
			c0-6.147-1.002-12.057-2.962-17.74c-1.989-5.651-4.95-10.677-8.899-15.046c-3.978-4.412-9.048-7.972-15.255-10.664
			C120.292,1.359,112.978,0,104.528,0c-9.782,0-20.312,1.839-28.582,5.519c-8.271,3.663-15.241,8.479-20.85,14.433
			c-5.818,6.133-10.274,13.118-13.401,20.925C38.555,48.698,37,56.76,37,65.09c0,9.723,1.719,18.157,5.204,25.307
			c3.485,7.163,8.062,13.146,13.76,17.963c5.744,4.816,12.204,8.392,19.354,10.753c7.149,2.334,15.929,3.529,23.333,3.529
			c8.271,0,15.792-1.299,22.554-3.904c6.73-2.631,12.564-6.056,17.484-10.304L136.37,104.694z"/>
		<path fill-rule="evenodd" clip-rule="evenodd" fill="#FFFFFF" d="M163.396,85.088c3.396-2.109,6.134-5.624,8.181-10.546
			l-2.991-1.257c-0.552,1.466-1.285,2.828-2.167,4.067c-0.882,1.241-1.915,2.336-3.082,3.322c-1.166,0.929-2.558,1.676-4.143,2.244
			c-1.585,0.552-3.32,0.835-5.204,0.835c-2.529,0-4.816-0.582-6.851-1.777c-2.049-1.181-3.813-2.842-5.31-4.951
			c-1.495-2.153-2.662-4.621-3.455-7.434c-0.792-2.797-1.181-5.908-1.181-9.303c0-3.828,0.375-7.284,1.167-10.396
			c0.792-3.081,1.87-5.653,3.261-7.671c1.45-2.081,3.155-3.637,5.145-4.713c1.99-1.077,4.143-1.615,6.477-1.615
			c2.004,0,3.798,0.464,5.368,1.406c1.572,0.928,2.917,2.243,4.085,3.874c1.03,1.45,1.929,3.229,2.691,5.324
			c0.748,2.109,1.331,4.066,1.704,5.849h2.992V34.4h-2.992l-1.495,2.48c-1.87-1.12-3.829-2.078-5.878-2.825
			c-2.063-0.747-4.381-1.151-6.924-1.151c-3.41,0-6.64,0.672-9.632,2.004c-3.006,1.36-5.623,3.261-7.822,5.729
			c-2.244,2.482-3.964,5.442-5.235,8.898c-1.256,3.47-1.884,7.3-1.884,11.501c0,4.233,0.628,8.048,1.884,11.412
			c1.271,3.366,2.946,6.207,5.101,8.555c2.138,2.334,4.591,4.129,7.373,5.37c2.782,1.242,5.714,1.868,8.75,1.868
			C155.994,88.241,160.017,87.167,163.396,85.088z"/>
		<path fill-rule="evenodd" clip-rule="evenodd" fill="#FFFFFF" d="M199.995,80.796c-1.99,2.989-4.684,4.455-8.093,4.455
			c-2.076,0-3.797-0.448-5.205-1.33c-1.405-0.883-2.571-2.124-3.484-3.725c-0.927-1.556-1.614-3.366-2.035-5.37
			c-0.417-2.004-0.627-4.187-0.627-6.535c0-1.782,0.165-3.649,0.508-5.563c0.359-1.916,0.958-3.649,1.856-5.146
			c0.927-1.615,2.123-2.903,3.618-3.828c1.467-0.942,3.275-1.406,5.369-1.406c2.037,0,3.769,0.464,5.191,1.376
			c1.405,0.942,2.542,2.153,3.439,3.662c0.809,1.453,1.422,3.188,1.84,5.252c0.403,2.048,0.613,3.992,0.613,5.831
			C202.985,73.705,201.983,77.818,199.995,80.796z M204.151,54.561c-3.198-3.454-7.267-5.205-12.205-5.205
			c-5.173,0-9.391,1.841-12.59,5.49c-3.201,3.647-4.788,8.346-4.788,14.074c0,2.99,0.45,5.666,1.376,8.06
			c0.912,2.408,2.154,4.443,3.695,6.074c1.57,1.702,3.365,2.99,5.398,3.873c2.004,0.866,4.127,1.314,6.371,1.314
			c2.693,0,5.129-0.492,7.3-1.45c2.152-0.956,4.066-2.422,5.728-4.44c1.434-1.722,2.542-3.829,3.335-6.327
			c0.792-2.498,1.195-5.056,1.195-7.645C208.968,62.638,207.353,58.03,204.151,54.561z"/>
		<path fill-rule="evenodd" clip-rule="evenodd" fill="#FFFFFF" d="M237.324,50.896c-1.031-1.03-2.332-1.54-3.96-1.54
			c-1.648,0-3.442,0.538-5.399,1.57c-1.96,1.018-3.771,2.543-5.358,4.531h-0.178v-5.548l-0.493-0.554l-11.472,1.496v2.99
			c0.748,0.046,1.466,0.137,2.139,0.286c0.657,0.134,1.242,0.327,1.735,0.598c0.657,0.417,1.166,1.017,1.539,1.705
			c0.375,0.703,0.57,1.437,0.57,2.153v21.553c0,0.866-0.195,1.569-0.57,2.077c-0.374,0.538-0.955,0.914-1.703,1.123
			c-0.509,0.134-1.092,0.224-1.75,0.283l-1.96,0.134v2.993h19.429v-2.993c-0.763-0.044-1.677-0.118-2.708-0.252
			c-1.046-0.121-1.884-0.314-2.542-0.541c-0.78-0.253-1.333-0.657-1.692-1.195c-0.374-0.508-0.523-1.212-0.523-2.077V58.913
			c1.467-1.615,3.261-2.856,5.385-3.739c2.138-0.882,3.948-1.332,5.445-1.332c-0.091,0.42-0.164,0.868-0.254,1.288
			c-0.091,0.417-0.12,0.881-0.12,1.406c0,0.837,0.268,1.584,0.82,2.256c0.541,0.703,1.332,1.033,2.363,1.033
			c0.928,0,1.629-0.492,2.094-1.466c0.479-0.986,0.704-2.109,0.704-3.364C238.867,53.275,238.358,51.928,237.324,50.896z"/>
		<path fill-rule="evenodd" clip-rule="evenodd" fill="#FFFFFF" d="M283.736,83.754c-0.869-0.044-1.543-0.118-2.034-0.208
			c-0.493-0.091-1.077-0.284-1.735-0.508c-0.809-0.286-1.394-0.703-1.721-1.227c-0.33-0.51-0.494-1.211-0.494-2.049V61.126
			c0-3.544-0.881-6.4-2.664-8.541c-1.779-2.153-4.515-3.229-8.208-3.229c-1.646,0-3.143,0.208-4.457,0.584
			c-1.333,0.402-2.469,0.881-3.442,1.481c-0.835,0.507-1.703,1.18-2.631,2.004c-0.94,0.837-1.736,1.54-2.334,2.122h-0.192v-5.638
			l-0.494-0.554l-11.471,1.496v2.99c0.747,0.046,1.481,0.137,2.152,0.286c0.658,0.134,1.242,0.327,1.736,0.598
			c0.643,0.417,1.166,0.986,1.539,1.646c0.374,0.672,0.555,1.419,0.555,2.213v21.553c0,0.866-0.182,1.569-0.555,2.077
			c-0.374,0.538-0.955,0.914-1.703,1.123c-0.523,0.134-1.107,0.224-1.75,0.283l-1.975,0.134v2.993h17.947v-2.993
			c-0.704-0.044-1.346-0.118-1.988-0.252c-0.643-0.121-1.227-0.314-1.797-0.541c-0.747-0.281-1.286-0.701-1.659-1.239
			c-0.374-0.51-0.537-1.196-0.537-2.005V59.212c0.24-0.373,0.627-0.853,1.194-1.512c0.555-0.626,1.289-1.239,2.215-1.793
			c0.944-0.569,2.036-1.062,3.274-1.452c1.241-0.402,2.618-0.613,4.113-0.613c1.99,0,3.666,0.703,5.071,2.065
			c1.375,1.376,2.08,3.336,2.08,5.862v18.292c0,0.883-0.195,1.586-0.537,2.124c-0.374,0.566-0.914,0.942-1.633,1.12
			c-0.494,0.165-1.104,0.255-1.822,0.314c-0.734,0.046-1.377,0.09-1.99,0.134v2.993h17.948V83.754z"/>
		<path fill-rule="evenodd" clip-rule="evenodd" fill="#FFFFFF" d="M291.214,64.312c0.134-3.737,1.136-6.686,2.962-8.777
			c1.822-2.109,4.112-3.187,6.864-3.187c1.646,0,2.991,0.343,4.052,1.046c1.049,0.703,1.885,1.615,2.498,2.723
			c0.54,1.018,0.929,2.303,1.197,3.843c0.225,1.556,0.374,2.993,0.374,4.353H291.214z M313.634,77.772
			c-1.481,2.274-3.006,3.831-4.593,4.696c-1.586,0.868-3.484,1.285-5.684,1.285c-2.153,0-3.994-0.401-5.533-1.241
			c-1.572-0.835-2.828-1.987-3.768-3.439c-0.974-1.494-1.707-3.215-2.172-5.175c-0.461-1.973-0.671-4.173-0.671-6.596h23.915v-2.406
			c0-2.169-0.268-4.188-0.791-6.058c-0.541-1.84-1.332-3.457-2.41-4.832c-1.121-1.422-2.588-2.542-4.381-3.395
			c-1.809-0.838-3.95-1.257-6.477-1.257c-2.483,0-4.698,0.554-6.654,1.63c-1.99,1.077-3.652,2.514-4.982,4.278
			c-1.375,1.854-2.424,3.933-3.129,6.223c-0.729,2.318-1.074,4.667-1.074,7.058c0,2.663,0.328,5.205,1.002,7.598
			c0.673,2.38,1.707,4.487,3.111,6.255c1.376,1.823,3.126,3.259,5.278,4.275c2.153,1.033,4.653,1.569,7.493,1.569
			c3.23,0,6.074-0.822,8.557-2.437c2.482-1.603,4.457-3.784,5.953-6.536L313.634,77.772z"/>
		<path fill-rule="evenodd" clip-rule="evenodd" fill="#FFFFFF" d="M337.565,83.754c-0.749-0.044-1.409-0.118-1.989-0.252
			c-0.585-0.121-1.17-0.314-1.75-0.541c-0.793-0.281-1.376-0.701-1.721-1.255c-0.359-0.538-0.523-1.242-0.523-2.093V30.45
			l-0.493-0.539l-12.968,1.497V34.4c0.732,0.044,1.688,0.178,2.9,0.418c1.198,0.239,2.019,0.494,2.483,0.777
			c0.599,0.433,1.122,1.018,1.511,1.765c0.373,0.749,0.584,1.556,0.584,2.393v40.399c0,0.851-0.181,1.554-0.556,2.062
			c-0.374,0.538-0.954,0.914-1.702,1.123c-0.465,0.118-1.034,0.209-1.735,0.255c-0.705,0.074-1.376,0.118-1.991,0.162v2.993h17.95
			V83.754z"/>
		<path fill-rule="evenodd" clip-rule="evenodd" fill="#FFFFFF" d="M360,83.754c-0.749-0.044-1.408-0.118-1.99-0.252
			c-0.584-0.121-1.168-0.314-1.749-0.541c-0.792-0.281-1.376-0.701-1.735-1.255c-0.344-0.538-0.508-1.242-0.508-2.093V30.45
			l-0.494-0.539l-12.968,1.497V34.4c0.733,0.044,1.688,0.178,2.901,0.418c1.197,0.239,2.004,0.494,2.482,0.777
			c0.6,0.433,1.123,1.018,1.51,1.765c0.375,0.749,0.585,1.556,0.585,2.393v40.399c0,0.851-0.181,1.554-0.555,2.062
			c-0.374,0.538-0.956,0.914-1.703,1.123c-0.479,0.118-1.034,0.209-1.735,0.255c-0.703,0.074-1.376,0.118-1.988,0.162v2.993H360
			V83.754z"/>
		<path fill-rule="evenodd" clip-rule="evenodd" fill="#FFFFFF" d="M22.435,85.251c-0.792-0.029-1.735-0.135-2.827-0.374
			c-1.122-0.237-1.914-0.448-2.408-0.657c-0.822-0.345-1.405-0.839-1.734-1.45c-0.344-0.6-0.509-1.333-0.509-2.125V43.344
			c0-0.794,0.135-1.512,0.448-2.169c0.3-0.659,0.897-1.123,1.795-1.422c0.749-0.239,1.616-0.417,2.618-0.582
			c1.002-0.149,1.869-0.239,2.617-0.283v-2.993H0v2.993c0.673,0.044,1.54,0.208,2.618,0.461c1.047,0.255,1.943,0.525,2.648,0.793
			c0.957,0.404,1.554,0.899,1.809,1.45c0.27,0.569,0.403,1.288,0.403,2.125V81.05c0,0.971-0.193,1.72-0.538,2.256
			c-0.344,0.569-0.912,0.989-1.674,1.288c-0.495,0.193-1.347,0.358-2.528,0.448L0,85.251v2.99h22.435V85.251z"/>
		<path fill-rule="evenodd" clip-rule="evenodd" fill="#FFFFFF" d="M71.776,35.895h-46.35v13.461h2.992
			c0.209-0.747,0.598-1.69,1.181-2.856c0.568-1.137,1.226-2.213,1.974-3.246c0.748-1.03,1.542-1.944,2.424-2.737
			c0.882-0.791,1.734-1.255,2.572-1.345c1.033-0.121,2.124-0.195,3.276-0.239c1.122-0.016,2.079-0.044,2.871-0.044h2.155v41.757
			c0,1.003-0.195,1.794-0.524,2.409c-0.328,0.612-0.868,1.046-1.57,1.359c-0.479,0.227-1.346,0.418-2.617,0.554
			c-1.257,0.149-2.17,0.237-2.768,0.284v2.99h22.42v-2.99c-0.703-0.029-1.676-0.179-2.947-0.464
			c-1.256-0.283-2.079-0.523-2.467-0.703c-0.778-0.358-1.316-0.866-1.616-1.54c-0.299-0.657-0.448-1.406-0.448-2.229V38.888h2.154
			c0.987,0,2.078,0.028,3.246,0.074c1.166,0.044,2.124,0.104,2.901,0.209c0.822,0.118,1.66,0.554,2.542,1.345
			c0.898,0.793,1.705,1.707,2.452,2.737c0.705,1.002,1.362,2.063,1.946,3.187c0.583,1.12,0.987,2.094,1.211,2.916h2.991V35.895z"/>
	</g>
</g>
</svg>
